# xmcd
#
# Track frame offsets: 
#        183
#        14168
#        22665
#        33870
#        52410
#        64648
#        82213
#        92658
#        105025
#        122245
#        133133
#        144868
#        161603
#        176968
#        194070
#        217905
#
# Disc length: 3109 seconds
#
# Revision: 4
# Processed by: cddbd v1.5.1PL0 Copyright (c) Steve Scherf et al.
# Submitted via: ExactAudioCopy v0.95a5
#
DISCID=e10c2310
DTITLE=Graeme Allwright - Graeme Allwright - 16 titres - Chansons d'au
DTITLE=teurs
DYEAR=1993
DGENRE=Chanson
TTITLE0=Emmène-moi
TTITLE1=Petites Boîtes
TTITLE2=Le Jour de clarté
TTITLE3=Suzanne
TTITLE4=Petit Garçon
TTITLE5=Demain sera bien
TTITLE6=Qu'as-tu appris à l'école ?
TTITLE7=Jolie Bouteille
TTITLE8=Il faut que je m'en aille
TTITLE9=Ça je ne l'ai jamais vu
TTITLE10=Qui a tué Davy Moore ?
TTITLE11=La Petite Souris
TTITLE12=Ballade de la désescalade
TTITLE13=Jusqu'à la ceinture
TTITLE14=L'Étranger
TTITLE15=Lover, lover, lover
EXTD=YEAR: 1993 ID3G: 102
EXTT0=
EXTT1=
EXTT2=
EXTT3=
EXTT4=
EXTT5=
EXTT6=
EXTT7=
EXTT8=
EXTT9=
EXTT10=
EXTT11=
EXTT12=
EXTT13=
EXTT14=
EXTT15=
PLAYORDER=
